<?xml version="1.0" encoding="UTF-8"?>
<svg id="Layer_1" data-name="Layer 1" xmlns="http://www.w3.org/2000/svg" viewBox="0 0 1000 1000">
  <path d="M589.27,965.5h-22.48l-3.31-.85-14.65-1.15-13.51-1.09-11-.52-11.43-.57-15.74-1.2-12.42-1.13-10.09-.55-11.35-.42-16.73-1.28-12.41-1.11-10.1-.57-11.39-.47-16.68-.98c-10.67-.63-20.58-3.99-25.94-13.92-7.91-7.09-10.5-16.98-8.52-27.25l-.24-12.97.12-12.72.45-11.48.55-50.96.42-14.96.28-9.12.43-38.86.14-13.99.44-11.49.54-49.82.2-14.9.37-10.6.52-20.5-13.61.18-13.39-.13-11.38-.17-13.49-.17-119.15-.83-14.08-.28-93.08-.54c-22.49-.13-44.19-9.13-41.58-31.59l.43-19.77c.03-1.55-1.42-4.96-2.22-5.7v-11.24c1.49-2.5,2.37-6.52,2.47-10.02l.39-14.68,2.09-144c.13-8.76-.17-16.75,6.4-22.98,5.07-6.18,13.51-8.9,21.87-8.65,6.27-3.42,12.86-4.53,19.59-3.74l14.15-.2,52.08-.61,9.12-.15,13.47-.2,14.04-.16,54.1-.61,13.91-.22,12.4-.18,11.26-.15,51.22-.57,13.89-.22,13.41-.59.22-42.54.71-14.72.37-58.49.47-5.33.2-9.6.49-38.62.11-14.6.38-12.99.31-7.75.36-52.48.61-14.86.52-21.28c.29-11.61,9.2-18.82,18.47-23.05,6.98-3.19,12.64-5.37,20.14-4.7,13.29,1.18,26.68.51,40.15.85l15.37.39,9.12.28,38.89.44,13.99.6,48.99.38c9.54.07,18.11.15,25.27,7.28,6,5.96,10.13,14.43,8.66,23.78,12.24,5.38,17.29,16.5,16.42,28.82-.93,13.21-.45,26.32-.64,39.68l-.21,14-.42,11.49-.6,50.55-.21,14.19-.37,9.42-.53,51.13-.58,17.15-.64,48.12,16.61-.53,63.35-.68,10.2-.19,14.33-.2,64.26-.73,10.22-.18,12.39-.2,14.12-.15,51.08-.54,11.07-.3c8.84-.24,16.84.24,23.25,6.13,5.92,5.44,8.41,12.89,8.47,21.41l.24,31.2.2,9.38.2,15.06.68,51.02.16,10.2.21,14.28.81,64.13.25,10.35.2,12.62-.48,15.48c-.27,8.79-3.12,16.73-9.34,21.98-6.52,5.5-14.23,5.99-22.65,5.77l-13.22-.34-10.41-.12-121.24-.86-14.14-.24-114.79-.76-.45,8.13-.41,13.59-.26,9.14-.43,38.86-.14,14.63-.47,10.83-.57,50.56-.21,14.18-.36,9.42-.47,49.13-.3,4.34-.31,11.76-.58,49.9c-.08,7.22.93,14.8-3.8,21.31-5.98,8.23-15.31,13.19-24.1,17.27Z"/>
</svg>