<?xml version="1.0" encoding="UTF-8"?>
<svg id="Layer_1" data-name="Layer 1" xmlns="http://www.w3.org/2000/svg" viewBox="0 0 1000 1000">
  <path d="M396.64,459.72l1.97-5c.39-9.51,7.72-15.97,16.95-18.05l26.01-5.85,41.17-10.62,63.51-15.54,76.77-19.01,29.58-7.71-6.21-48.98-9.92-77.87-5.4-42.93-18.25.27-42.66,1.09-34.2.96-36.75,1.03-34.16.92-36.14.88-8.46.38-33.33.79-35.77,1.05-35.07.94-19.51.61.18,56.86.44,7.82.16,8.22.17,10.55.21,121.17.6,8.23.05,9.64.16,51.51c.01,4.42-10.65,20-19.82,19.86l-23.65-.35-19.84-1.13-24.13-.92-25.76-1.11-19.03-.99-18.41-.3c-8.8-.14-14.48-3.25-19.97-9.41-2.62-2.94-4.82-5.61-6.33-9.6l-16.47-43.62-3.23-7.74c-1.73-4.14-3.05-8.08-3.73-12.54l-1.7-11.08-7.34-68.74-18.95-173.84-10.7-96.42c-.82-7.42-1.05-13.5,3.95-19.09,4.69-5.25,11.11-6.14,18.46-6.35l7.9-.22,10.45-.36,76.4-.27,10.51-.76,78.4-.19,9.46-.77,85.44-.26,10.52-.77,77.41-.22,10.41-.74,78.32-.26,7.14-.59,10.55-.16,76.38-.27,10.51-.76,76.54-.2,11.32-.76,76.29.23c13.72.04,17.77,14.79,15.83,25.65l-1.29,18.9-1.01,17.02-1.04,18-.98,17-.98,17-1.03,18-1.02,17-.89,14.13-.97,16.3-1.06,16.9-1.05,14.65-.98,17.03-1.04,18-.98,17-.99,17-.98,17-1.04,18-.99,17-1,17-.82,13.5-1.23,18.69-.88,12.87-1.06,17.95-.98,16.99-.91,16.09c-.3,5.21-1.8,9.75-3.75,14.3-3.34,7.81-8.53,10.79-16.65,12.98l-24,6.49-29.66,7.49-41.87,10.98-22.35,5.78-32.98,8.75-22.4,5.78-38.9,9.76c-1.42,1.93.23,5.24,1.04,8.11l18.57,66.2,3.58,12.47,4.55,16.33,10.88,38.28,7.01,25.02,5.14,18.02,10.92,39.17c1.7,6.1,3.11,12.28-.09,18.34-5.22,9.87-15.89,11.61-25.75,13.25l-12.7,2.11-82.63,10.23-25.69,3.71c-7.06,1.02-12.38.12-18.51-3.02-8.32-4.26-12.57-11.07-13.19-20.6l-3.92-19.37-3.42-18.64-4.19-19.95-4.98-24.95-6.14-30.79-3.49-17.46-8.51-42.49-2.97-15.35-9.09-44.65-3.79-19.36-.07-102.21Z"/>
  <path d="M482.87,951.23l-1.38-9.18-2-11.99-3.47-26.35c-.61-4.65-1.64-8.97-4.22-12.73-4.46-6.48-4.17-14.13-.38-20.44,3.75-6.25,10.48-8.57,18.12-8.98l11.05-.59,11.1-.62,23.44-.79,18.86-1.13,24.04-.87,15.54-.93,25.8.09c11.28,1.26,16.01,9.55,17.72,20.2l1.85,11.47,3.05,19.65,1.86,10.91,3.2,19.63c1.5,9.21-.37,16.75-7.6,22.59-5.12,4.13-9.87,6.94-17.01,6.98l-55.49.33-62.08,1.03c-11.43.19-20.2-6.39-21.99-18.29Z"/>
</svg>