<?xml version="1.0" encoding="UTF-8"?>
<svg id="Layer_1" data-name="Layer 1" xmlns="http://www.w3.org/2000/svg" viewBox="0 0 1000 1000">
  <path d="M730.31,383.16l-.83-43.56-.79-41.53-.46-10.36-.75-44.13-.51-44.46-7.18-.78-23.19-.92-19.05-.96-25.11-.95-17.26-.86-27.59-1.22-25.15-.92-18.89-1.07-25.14-.93-25.79-1.12-19.06-.96-25.15-.95-26.42-1.16-.31,57.08-.15,9.64-.46,8.09-.18,148.33-.18,19.19-.2,8.38-.46,8.09-.14,138.57-.12,19.73-.09,8.57-.08,8.2-.08,9.04-.49,7.91-.22,148.32-.11,10.55-.09,7.98-.17,8.99-.28,8.1-.6,95.69-1.74,13.09c-.08,10.15-8.7,15.47-18.05,16l-346.9,19.58c-3.78.21-7.19-.83-10.76-1.62-7.36-1.64-12.63-7.1-14.12-14.96l-1.7-8.96-.71-27.55-.34-8.62-.73-43.37-.79-49.48-.62-11.2-.18-44.73,10.43-20.55c6.12-12.07,16.13-1.48,31.73-12.48l131.69-11.89c9.85-.89,17.12-6.27,22.38-13.84,4.11-5.92,7.09-11.53,7.29-19.24l13.7-524.83,4.33-93.45c4.7-2.99,9.32-7.7,14.68-8.26l11.86-1.23,49.04-.41,10.22-.66,50.78-.33,10.23-.64,53.27-.66,60.81-1.07,61.01-.99,61.17-.93,61.8-1.08,50.69-.69,10.24-.62,50.77-.34,10.22-.62,43.39-.64c6.79-.1,13.2-1.44,18.75,3.45,4.89,4.31,6.45,10.73,6.65,18.04l.39,13.97.27,7.01.68,33.56,1.08,43.76.92,35.24,1.08,43.76.92,35.24,1.08,42.76.8,33.57.42,10.33.77,35.15.83,36.16.34,8.64.73,33.41,1.11,43.73.9,35.25,1.1,43.77.92,35.24,1.07,43.76.83,34.37.37,8.81.79,35.87.89,36.21,1.04,40.98,1.15,44.77.78,35.22c.15,6.87,1.3,14.49.24,21.1-1.77,11.09-12.87,14.56-22.72,15.19l-28.87,1.84-16.01,1.08-9.97.89-17.98,1.18-8.17.68-16.91,1.1-18.96,1.39-15,1.38-8.07-.27-69.6-.27-10.42-.69-67.74-.13c-9.05-.02-14.85-1.57-21.16-8.03-6.74-6.89-9.09-13.25-7.45-23.32l1.13-17.55,1.03-18.1,1.02-17.99.97-17,1.03-18,.98-17,1.04-18,.92-16.03.66-13.02.66-10.79c-1.38-12.38,6.15-21.31,17.83-22.76l12.13-1.51,12.15-.57,23.46-.81,18.84-1.08,18.21-.89,22.3-.96,11.07-.54,12.05-.93-.56-10.13-1.01-49.38-.78-41.57-.45-10.35-.68-42.3-.99-45.01-1.14-52.77-.87-43.23-.92-44.96-.33-8.3Z"/>
</svg>