<?xml version="1.0" encoding="UTF-8"?>
<svg id="Layer_1" data-name="Layer 1" xmlns="http://www.w3.org/2000/svg" viewBox="0 0 1000 1000">
  <path d="M700.32,757.72l-.33,8.43-.91,52.08-.91,52.18-1.15,59.63-.33,24.67c-.12,9.12-5.44,15.11-13.69,18.43-4.64,1.87-8.99,3.21-13.72,3.03l-28.03-1.07-33.26-.99-17.49-2.14-16.72-.63-11.82-.66c-8.58.76-14.73-2.1-19.95-8.36-2.82-3.38-7.16-7.54-7.15-12.71l.1-66.72c.02-10.55,13.44-17.94,25.82-19.34l31.84-3.61.72-10.3,1.96-25.88,1.46-18.93,1.34-18,.83-9.99,1.15-14.98.9-10.98,1.25-15.7.78-10.33.92-8.94,1.14-15.98.75-10.98-7.85,5.12-12.93,7.99-27.87,17.39-17.11,10.8-54.72,34.07-9.18,5.81-14.03,8.91-57.23,35.64-14.85,9.33-170.66,106.72-10.57,6.62-13.45,8.48-52.45,32.31c-3.99,2.46-9.67,1.32-12.81-.49-4.25-2.45-5.51-6.38-5.29-11.61l7.06-163.68,30.62-714.75c.36-8.5,3.69-15.24,13.07-16.92,4.89-.88,7.71,3.98,11.38,6.12l38.62,22.45,147.08,84.47,99.23,56.74,126.23,72.56,178.27,102.3,121.84,69.78c4.56,2.61,6.78,6.85,6.8,11.34.02,5.09-3.79,7.97-7.84,10.5l-20.88,12.99-11.01,6.89-13.6,8.51-87.3,54.58-14.18,8.86-14.74,9.28-63.22,39.48-17.26,11.4,222.11.06,8.62,3.11c5.1,1.84,12.2,7.73,12.32,13.97l.63,32.93.55,11.2-.16,53.72-3.62,196.91-65.95.86-70.85.71c-4.59-2.36-9.63-7.84-10.51-12.94l-3.13-18.04-1.72-8.11-3.72-19.6-3.56-20.67c-1.17-6.8-.27-12.81,3.89-18.24s9.91-6.07,16.6-7.36l39.32-7.61c1.36-2.8,1.76-6.59,1.97-10.07l1.03-16.96.85-14.03,1.72-21.87.88-15.01,1.07-16.82-13.71-.99-9.22-.89-11.84-.61-16.87-1.2-8.17-.65-17.97-1.18-9.94-.91-15.31-.93Z"/>
</svg>