<?xml version="1.0" encoding="UTF-8"?>
<svg id="Layer_1" data-name="Layer 1" xmlns="http://www.w3.org/2000/svg" viewBox="0 0 1000 1000">
  <path d="M799.52,504.09c-2.29,3.56-5.35,5.64-8.58,7.85l-28.51,19.52-60.52,41.28-22.54,15.54-48.08,32.85-28.5,19.48-20.21,13.8-41.54,28.34-20.18,13.87-51.03,34.89-26.73,18.28-21.91,14.97-21.48,14.62-23.11,15.81-16.61,11.45-63.42,43.33-29.08,19.87-17.85,12.22-11.97,8.09-21.33,14.67-22.58,15.42-21.4,14.61-24.28,16.55-10.79,7.34c-3.67,2.5-9.62,3.36-13.51,1.3-5.26-2.79-6.09-8.14-5.86-13.81L153.72,69.48c.2-4.81,3.94-8.3,6.23-9.92,4.8-1.19,8.89-.82,13.01,1.56,4.11-2.02,8.61-2.88,12.69-.03,9.35,7.23,19.1,13.3,28.8,20.11l19.41,13.63,18.21,12.68,14.74,10.33,32.97,22.93,19.46,13.61,61.78,42.95,19.3,13.73,30.62,21.29,12.51,8.54,16.47,11.53,19.98,14,38.17,26.61,31.28,21.8,32.54,22.54,18.64,13.29,31.8,22.19,14.88,10.09,17.65,12.37,21.75,15.21,31.69,22.21,30.08,20.9,10.72,7.31,17.65,12.34,18.77,13.13c6,4.19,8.4,10.88,4.01,17.71Z"/>
  <path d="M951.11,649.38l1.01,40.47,1.03,39.99.94,35,1.02,40.01,1,40,1,40,1.02,39.96.73,26.28c.18,6.67-6.1,11.97-12.87,12.38l-92.24,5.52c-5.07.3-8.56.65-13.36-1.38s-9.22-4.83-9.41-11.11l-26.85-875.7c-.17-5.69.74-11.1,5.97-13.82,2.14-1.12,6.59-2.46,8.99-2.54l24.45-.76,26.98-1.15,55.84-2.17c5.27-.21,9.8,5.71,9.92,10.15l.82,29.36,1.03,39.99,1,40.01,1,40,1.01,39.99.95,35,1.03,40.01,1,40,1,40,1,40,1.01,39.99.95,35,1.03,40.01,1,40,.99,39.53Z"/>
</svg>