<?xml version="1.0" encoding="UTF-8"?>
<svg id="Layer_1" data-name="Layer 1" xmlns="http://www.w3.org/2000/svg" viewBox="0 0 259.2 259.2">
  <path d="M39.4,261.2H-3.51s0-266.35,0-266.35h266.35s-.01,266.35-.01,266.35H93.89s.17-3.7.17-3.7v-8.6c0-1.16-.01-2.1,0-3.27l.03-3.41-.26-3.72-.18-3.68-.17-3.2-.24-3.05.37-3.13.13-6.63.23-2.72.23-2.27c1.01-.06,1.43.66,2.09,1.42.41.47,1.39,1.13,1.63,1.65.35.77.59,1.21,1.07,1.75l2.77,3.12.56.63c.45.5,1.34-.93,2.4.1l1.91,1.84c.76.74,1.63,1.38,2.68,1.73,1.94.66,2.23,2.19,2.59,2l.9-.46,2.56,2.91.32.48c.05.07.1.05.13-.03l.2-.62c.86.61,1.7,1.29,2.43,2.12,1.08,0,1.74.87,1.99,1.87l.74-.03c.13,0,.06-.29,0-.45l-.25-.61c2.28,1.13,2.04,4.63,4.13,3.82.26.04.34.5.38,1.17l1.23-.63c.47-.24,1.09.87,1.51,1.1,1.66.91,2.51,1.79,2.65,1.72l.85-.42c.67.6,1.44.84,2.42.88l2.24,1c.64-.07,1,0,1.46.26l1.78.99,1.75,1.1c.78.49,2.47.91,3.36,1.12l.43-.44c.06-.06.34.03.32.1l-.2.58s.56,0,.66-.15l.52-.84.89,1.92c-.67.1-1.3.29-1.31.6.04.94-.34,1.94-1.25,2.34l.61.89c.15.22,1.58-1.39,1.7-3.22l1.14.22c.09.02.31-.23.24-.29l-.46-.38c.02-.52.98-1.1,1.67-1.1-.55-.39-.99-.72-1.35-1.33l-1.15-.67,1.15-.7.53,1.21c.22.5,1.49.97,1.89,1.08.32-1.26.74-2.18,1.36-3.22l1.1-1.85.57,1.13c.42-.91.5-1.75.26-2.49-.89.86-1.48,1.38-2.48,1.68.52-.83.99-1.5,1.51-1.9l.69-.53c.17-.13-.22-.52-.37-.63.86-.16,1.98-.4,2.57-.87l1.86-1.47,3.14-2.95.89.21c.6.14.66-2.39,2.96-2.04l-1.46,1.91-.97,1.78c-.36.67-.7,1.26-1.15,1.66l-.21.08c.13.12.41.38.58.33s.55-.31.68-.44l1.73-1.76,1.58-1.75c.85-.94,1.08-1.74,2.24-2.33s-.3-3.2,1.23-1.81l3.83-1.78c.68-.32,1.18-.44,1.9-.23-.07-1.46.89-2.43,1.84-3.3,1.9-1.73,2.04-3.82,3.47-5.44.71-.8.93-1.49,1.4-2.38l2.52-4.82,1.99-4.53c-.33-.88-.15-1.56.37-2.19l2.53-6.13c.35-.85.9-1.51,1.42-2.25l2.37-3.36c.45-.64,1.01-1.64,1.22-2.4l.55-2.02c.28-1.04-.12-3.21-.77-4.13-.87-1.24-2.01-2.16-3.08-3.13l-2.97-2.69c-.61-.55-1.24-.95-1.51-1.64-.61-1.56.8-2.78,2.56-3.88l.71.85c.39-.52,1.91-.7,2.03.02.16.98.4,1.57,1.27,1.7l.09-1.68-1.71-1.31c-1.73-1.32-4.48.53-6.42.5.77-.61,1.02-.86,1.23-1.53l.43-1.41.38.4c.09.1.28-.23.23-.35-.23-.52-1.16-.26-1.04-.45l.32-.56.39-.68c.08-.15-.28-.46-.46-.68l1.32-1.81c.58-.79.38-2.03,1.88-3.08l.55-.38c.14-.1-.52-.38-.74-.45l.35-1.44,1.86-.73c1.16.75,2.28.81,3.49.56l1.79-.36,3.52-.11c.99-.03,1.8,0,2.68.54,1.09.67,2.24,1,3.51,1.02l3.17.06c2.01.95,6.39,1.02,9.07.64l3.15-.75,3.99-1.15,3.05-.62,6.12-.11,4.17-.57c.74-.1,1.33-.14,2.08-.14h8.24c.57,0,1.37-.63,1.41-1.06.06-.6-.41-1.09-.89-1.48l-2.89-2.33-2.43-2.44c-.75-.75-1.31-1.38-2.2-2.09l.25-1.38-1.39-.46-.34-1.19c-.14-.49-1.78-.13-1.81-.59l-.05-.69c-2.14-1.06-2.71-3.09-5.94-4.18l-2.54-1.78-4.29-2.16-4.92-3.45-1.53-1.16c-.59-.9-1.47-.9-2.24-1.5l-7.31-5.73-3.38-2.54-3.82-3.06-3.08-2.29c.22-.5.68-1.24,1.1-1.57,1.19-.95,1.56-2.01,2.32-3.26.69-1.14,1.91-2.42,2.91-3.34.63-.59.99-.84,1.16-1.68.39.31,1.56.09,1.91-.45,1.8-2.86,4.46-2.27,6.99-4.1l3.23-2.5,2.85-1.75c1.35-3.29,4.58-2.28,4.62-4.53.15-.28.59-.86.51-1.12s-.38-.63-.63-.96l.1-.41c.24-.96-1.59,1.14-2.36.45-.14-.13,0-.7.19-.71l1.13-.09c.06.03-.26-.55-.47-.54l-1.06.03c1.47-2.35,4.76-2.04,2.71-3.63-.19-.75.86-1.04,2.45-2.56l1.43-1.36c.96-.91,4.61-1.81,4.11-3.72-.24-.92-1.03-1.27-1.95-1.44l-2.03-.38-2.38-.23c-1.75-.17-3.29-.37-5.04-.76-.83-.19-2.02-.18-2.91-.17l-6.63.1-1.9.3c-1.88.3-3.55.9-5.53.95l-2.23.81c-.85-.02-1.21.15-2.01.53-1.86.88-4.24,1.34-6.26,1.78-.34-.24-.17-.94.07-1.24l-.3-.42c-.06-.09.2-.31.36-.46-.32-1.4.52-2.65,1.45-3.64-.23-1.58.68-2.43.5-4.3l.71-2.93c.66-.61,1.18-1.53.93-2.53l.56-2.07-.06-.86c.46-.65.71-1.4.67-2.23-.05-1.12.22-1.97.38-3.07.22-1.51,0-3.46-.14-4.95-.87-.87-1.63-1.71-2.06-2.75-.71-1.74-2.64-2.18-4.23-1.55-.47-.65-1.03-.9-1.67-.62l-2.12.92c-.42.18-.97,1.14-1.01,1.55l.5.74c.1.15-.28.56-.43.66l-2.43,1.79-2.98.16-1.69,2.09-1.03,1.83-2.12,3.11-3.38,3.96-1.48.73c-.2.16-.2.28.4.44l-2.4,2.82-1.85,1.89-2.09,2.31-3.71,4.14c-.02.31-.09.93-.16,1.15-.08.26-.88.35-.95.18l.18-1.36c.04-.29-.58-.7-.75-.83.3-.74.21-1.02.27-1.8l.29-3.66c-.39-.39-.46-.86-.4-1.51l.3-3.13c.11-1.2,1.61-3.39.77-6.73l1.59-2.37c.39-.58.02-1.53-.37-2.07l.88-3.91c.24-1.05.41-2-.09-3.02.15-.41.29-.96.33-1.39l.22-3.01c.04-.52.94-1.23.67-1.96-.91-2.46-.5-4.85.5-7.15-.28-.88-.2-1.6.26-2.46.23-.59.3-1.9.24-2.53l-.22-2.45.04-1.94c.02-1.09.52-2.22.29-3.33-.24-1.17-1-1.72-2.12-1.96-.94-.2-1.56-.05-2.39.41s-1.65.85-2.27,1.4l-.9.8c-.22.2-.66-.07-1.28-.45l-1.56,3.17-1.61,2.01-3.06,4.09c-.5.67-1.02,1.24-1.67,1.81l-.33.29c-.06.05.02.35.09.33l.69-.18-1.09,1.41-2.94,4.18c-.85,1.21-1.62,2.22-2.85,3.15-.53.4-.86,1.58-1.28,2.06l-1.89,2.1-2.43,2.52-1.72,1.7-2.88,2.81-3.45,2.98-3.22,2.21c-1.71,1.17-3.74,1.79-5.64,2.18.04-.59.08-1.12-.03-1.36l-2.01-4.37c-.09-.19-.71-.39-.67-.57l.18-.88c.05-.26-.38-.81-.55-1.06-.16-1.99-.85-3.75-1.99-5.39l-1.17-1.7c.15-.94-.11-1.8-.46-2.78l-.77-2.17c-.28-.79-.36-1.33-.8-2-.53-.81-.75-1.9-1.19-2.78l-1.3-2.64-1.16-2.25c-.75-1.45-2.11-2.69-2.69-4.15-.34-.86-.42-1.79-.93-2.59l-.95-1.49.18-.91-.52-.82c-.55-.86,0-2.08.17-2.99l.42-2.23c-.52-.74-1.51-1.38-2.43-1.55l-3.21-.59c-.59-.11-1.25.05-1.62.48-.47.53-.43,1.07-.08,1.87.15.33.68.79.94.94-.09,1.4.92,2.7.29,4.37-.51.86-.58,1.46-.71,2.4l-.54,3.84-.73,2.4c-.23.74-.57,1.62-.87,2.23l-.14,4.14.05,2.11.36.71-.31.77-.88,4.58c-.24,1.26-.47,2.27-.53,3.5l-.18,3.4c-.04.68-.94,1.52-.54,2.89-1.53-1.09-2.22-2.76-3.36-4.34l-1.09-1.52-1.22-1.31c-.57-.61-.81-1.27-1.17-2.1-.28-.65-1.01-1.51-1.4-2.19-.76-1.34-1.52-2.5-2.45-3.74l-1.91-2.55-1.72-2.49c-.54-.11-1.81-.29-2.03-.78-.37-.85-.77-1.31-1.43-1.9-.4-.36-.97-1.2-1.39-1.48-1.19-.78-1.67-1.6-2.19-2.89-.42-1.04-1.45-1.98-2.21-2.87-.6-.7-.95-1.62-1.41-2.32l-2.75-4.14c-1.22-1.84-2.74-3.57-3.29-5.8-.43-1.75-1.87-2.35-2.56-2.19-.46.11-.98.6-1.42.96-.7.57-1.43,1.17-1.22,2.23.3,1.56.93,3.31.65,4.9s-.87,3.19-.78,4.89l.19,3.74.13,2.2c.13,2.2-.43,4.36-.08,8.04.14,1.52.13,3.03.07,4.57l-.07,1.98.02,3.01.48,5.74.25,4.93.19,6.27.6,4.49c.17,1.27.53,2.52,1.04,3.74.15.35-.73.9-1.11.84-1.07-.15-1.19-1.33-2.44-2.51l-2-1.49c-1.41-1.05-2.52-2.19-3.91-3.26l-3.63-2.79c-1.43-1.1-2.58-2.73-4.05-3.74l-1.79-1.22-2.46-1.98c-1.12-.9-2.18-2.03-3.4-2.74-2.2-1.28-4.37-3.71-5.96-4.46l-2.75-1.29c-.11-.05-.62.16-.67.06l-.35-.7c-2.42-.36-2.99-1.7-4.07-.3-.39.51-.9,1.2-.89,1.69.01.69.46,1.46.94,1.91l1.91,1.82,1.9,1.77c1.45,1.35,2.61,2.8,3.9,4.27l2.18,2.49,1.51,1.72,2.01,2.57c-.9.02-1.35.2-2.08.31l-2.39.36c.04,1.08.79,1.95,1.57,2.3-.06.67.34,1.13.71,1.63l1.51,2.07c.97,1.68,1.9,3.2,3.47,4.44l1.39,1.52c-.15,1.2.35,1.47,1.23,1.88l1.72,1.84,1.55,1.97c1.05,1.34,1.97,2.99,2.84,4.49l1.36,2.34,3.08,4.85c.59.93,1.11,2.04,1.83,2.83.64.71,1.06,1.13.83,2.33l-3.06-.99-3.46-1.25-2.47-.69-3.77-1.16-3.29-1.16c-1.09-.38-2.41-.27-3.39-1.11l-2.02-.13c-1.43-.71-2.65-1.41-4.17-1.79-1.44-.36-3.39-.48-4.55-1.34-.89-.66-1.19-.82-2.24-1.11l-3.01-.83c-1.56-.43-2.93,1.34-2.96,2.03-.01.33.68.71.93.98l2.01,2.2c.96,1.05,2.13,2.05,2.85,3.46-.41,1.07-.63,2.49.56,3.5,2,1.69,2.64,4.5,2.97,4.33l.73-.36c-.02-.32,0,.05.02.39-.34.54.77,1.01,1.01,1.4l1.06,1.72c1.29,2.09,3.1,3.78,4.84,5.54l1.2,1.69,2.3,2.45,1.71,1.95c1.75,1.99,3.45,3.66,4.62,6.05.23.47.88,1.27,1.19,1.69l1.48,2.04,2.31,3.25-2.08,1.66-1.66,1.46-4.28,3.06-5.94,4.01-5.8,4.05c-1.33.93-2.52,1.82-3.46,3.25-.39.59-1.31.91-1.83,1.33l-3.93,3.24-1.42,1.29c-1.51.86-2.66,2.01-3.83,3.32l-2.11,2.36c-.65.72-1.32,1.89-1.24,2.76.65.52.84.91.98,1.8,3.22,2.21,3.45,1.15,4.82.74l3.62-1.08,2.6-.74c.64-.18,1.75-.05,2.4.04.71-.68,1.43-1.12,2.47-1.27,1.44-.21,2.88-.91,4.27-1.19.66-.13,1.2-.28,1.81-.47l2.48-.8,3.37-.63c1.14-.21,1.95-.63,3.01-.76l1.94-.3c-.29.8-.56,1.27-1.05,1.78l-1.82,1.88-1.84,1.84-1.77,1.7-1.52.91c-1.06.64-1.78,1.22-2.62,2.11l-2.15,2.27-.79.66c-.23.19-.09,1.03.01,1.31l.79,2.25c1.15.92,2.95.41,4.35-.35l2.48-1.34c.07-.04.24-.43.28-.38l.46.5,2.66-1.47,1.97-1.06,1.52-1.08,4.1-2.39c.99-.58,1.56-1.69,2.05-2.64,2.81-.8,1.95-3.09,3.87-2.68-1.11,2.73-2.91,5.14-4.92,7.54l-2.14,2.56-3.83,4.09c-.77.82-2.16,1.73-2.68,2.58l-2.31,3.73-1.4,1.81c-.46.59-.81.93-1.15,1.57l-2.85,5.31-.88,2.33c-.09.25-.1.95.09,1.14.93.9,3.85-.5,5.82-1.38l5.81-2.58,3.98-1.9-.18,2.87,1.17-.17c.67-.1,1.34,0,2.1.03l2.63.12c.57-.52.99-1.79,1.22-2.61l.71-2.43c.51.52.54,1.05.51,1.66l-.18,3.66-.36,2.49-.21,3.5-.8,6.56-.53,2.74-.47,3.01-.78,4.33-.42,2.8-.24,1.95c-.64,2.68-1.04,5.15-1.28,7.91l-.65,1.97-.73,2.26-.95,3.06c-.36,1.17-.67,2.22-.74,3.42l-1.08,2.04-2.31,5.13c-1.79,3.13-3.22,6.23-4.43,9.64l-2.08,4.54c-.46,1-.82,1.98-.97,2.97ZM172.83,58.89c.41.03,1.24-.13,1.38-.44.13-.27.05-.93-.06-1.39l-.9,1.08-.52-.25c-.15-.07-.52.35-.48.51.03.12.44.48.57.49ZM170.01,67.33c.02.19.01.64-.03.83l-.12.56c-.02.1.28.21.35.13l.35-.37c-.73-1.59,1.66-1.58.48-3.52l-.31-.5c-.06-.1-.4.23-.33.33l.24.37c.08.12.28.47.19.57l-.44.5c-.98.05-2.57.28-2.96,1.32.6.85,2.48-1.08,2.59-.21ZM168.01,66.01l1.77-1.22c-.64-.14-1.25-.04-1.84.14l-.71.21c-.17.05-.14.64.01.73.11.07.66.2.77.13ZM166.96,70.25l1.44-.33.84-.13c.16-.02.11-.47.05-.73l-2.55.84c-.13,0-.62-.07-.6.04s.04.42.15.4l.67-.1ZM161,235.42l-.41-.9-3.19,1.58-.41,2.11c.25.05.74.1.77-.04l.13-.68c.05-.25.21-.73.31-.96.12-.27.94-.09,1.19-.01l.39-1.08c.1-.27.85-.05,1.06.14l.15-.15ZM144.42,252.45c.13-.16.25-.43.21-.61-.03-.13-.47-.39-.54-.27l-.33.58c-.37.65-.66,1.32-.76,2.04l1.42-1.74Z"/>
</svg>