<?xml version="1.0" encoding="UTF-8"?>
<svg id="Layer_1" data-name="Layer 1" xmlns="http://www.w3.org/2000/svg" viewBox="0 0 1000 1000" fill="none" stroke="#000" stroke-width="44" stroke-linecap="round" stroke-linejoin="round">
  <path fill="none" d="M594.67,779.62l-10.85,5.46-11.8,5.91-13.05,7.01-8.68,3.95c-2.13,4.39-2.25,11.31-3.26,16.33l-2.58,12.89-1.39,11.39-3,13.92-1.04,10.45-1.71,10.78-1.15,5.39-1.49,8.79-1.37,10.09-2.34,11.06-1.13,8.1c-.16,14.53-8.89,26.64-23.62,28.99l-7.64.56-16.6.23-13.2,1.06-19.27.46-3.94,1.19-21.07.13-4.96,1.38-22.95.54c-3.9.09-6.19,1.38-9.75-.21l-3.11,1.07-19.45.07-5.57,1.36-21.58-.16c-11.33-.09-28.12-19.41-26.96-30.72l1.14-11.16,1.57-12.97,1.31-11,1.42-12.98,2.57-14.37,1.81-11.51,1.2-10.23,1.62-13.87,1.25-10.38,1.37-12.71c.57-5.34,1.26-9.88,3.15-14.87l-6.86-16.04-15.41-32.02-6.34-13.91-5-10.27-5.59-11.33-5.21-11.98-4.34-9.51-6.29-12.79-5.16-10.55-9.31-20.87-8.41-17.16-11.64,3.63-14.46,4.36-9.57,2.19-11.78,3.44c-4.95,1.45-8.08,2.75-13.05,4.08l-9.73,2.61-15,4.51-8.34,2.37-15.68,4.62-10.87,2.74-9.83,2.89-14.4,4.38-9.61,2.59-14.43,4.39-10.72,2.67c-4.11,1.02-8.05,2.43-12.46,2.44-15.44.03-26.76-12.41-26.77-21.24l-.34-220.03c2.44-9.15,7.2-16.11,15.66-19.68,5.65-1.64,11.75-5.18,17.4-5.91l12.02-1.56,11.04-1.54c4.92-.69,10.02-2.41,14.75-2.88l10.31-1.04,12.28-2.8,11.71-1.49,12.19-2.93,7.5-.64,10.02-1.63,15.94-2.85,9.35-1.15,11.36-1.92,13.63-2.27c6.78-1.13,13.84-3.66,20.85-4l6.54-.32,5.44-6.65,5.75-10.9,6.13-10.23,6.52-10.67,3.88-6.98,11.46-19.04,13.73-22.84,7.9-13.14,9.26-15.46,5.54-9.26-3.42-10.16-3.66-10.35-16.4-44.49-2.5-6.53-3.33-10.06-13.36-35.46-3.32-8.97c-1.75-4.73-5.88-10.15-4.67-15.38l1.79-7.76c2.14-9.27,10.9-13.77,18.19-17.99,3.03-1.76,5.69-3.57,9.11-4.71l12.07-4.03,10.67-4.27,7.01-3.13,11.91-4.87,21.91-8.39,11.33-3.88,12.21-4.4,12.44-4.57,13.71-6.02,13.31-5.36c2.56-1.03,5.94-1.18,8.93-1.61,6.27-.9,13.08-2.23,18.66-.05,9.59,3.76,14.17,10.5,18.11,19.54l5.01,11.47,5.1,10.23,6.36,14.54,3.42,7.46,5.12,10.59,4.68,10.53,3.52,7.51,6.35,13.54,4.12,8.9,5.29,11.43,5.61,11.63,4.66,11.11,5.22,11.12,5.23,10.57,5.73,12.18,7.7.64,12.07,1.36,13,1.47,11,1.33,12.96,1.55c5.16.62,10.75,1.52,16.13.43l8.04-15.17,5.41-10.2,8.23-13.96,5.33-9.42,4.2-7.96,8.2-15.08c4.26-7.84,10.97-15.09,20.59-16.47l10.47-1.5c8.86-1.27,13.59,2,20.55,5.5l12.43,6.25,11.19,5.72,9.42,4.81,11.01,4.99,10.68,5.18,11.43,5.72,10.66,5.34,11.88,5.94,10.85,5.41,11.28,5.62c4.56,2.28,9.14,3.59,12.37,7.76l4.77,6.15c11.71,10.79,12.32,27.24,1.41,38.84l-5.22,10.49-6.23,11.61-6.23,12.03-4.76,8.17-6.69,12.15c-2.44,4.43-3.57,7.8-7.27,11.8.61,2.79,5.46,8.43,8.47,8.03l12.36-1.63,11.11-1.28,13.83-1.57,11.1-1.26,13.06-1.48,11.82-1.41c11.63-1.39,21.37-1.42,30.54,6.43,4.5,3.86,10.64,7.45,12.99,13.79l4.28,11.6,5.51,13.5,3.86,9.2,6.71,17.12,4.65,12.66c2.81,2.87,4.3,6.32,4.43,9.88l5.96,13.94,3.26,8.56,6.18,13.15c5.34,11.36,6.83,26.25-3.68,35.44l-8.57,7.5c-3.39,2.96-9.18,4.53-13.62,6.1l-12.9,4.53-15.23,4.42-14.02,4.82-10.56,3.35-25.22,8.02-17.37,5.2c-4.97,1.49-6.71,2.43-8.92,6.65l-5.24,10.01-4.76,7.86-4.51,7.3-5.83,11.38-6.09,10.74-6.02,10.02-6.46,12.13-5.1,9.35-5.39,9.44,3.36,7.55,6.2,12.07,5.18,8.43,8.64,15.59,4.31,7.82,5.78,10.09,4.26,7.43,9.87,17.32,3.79,8.03c8.04,8.62,8.72,24.99,3.25,32.71-3.07,4.34-4.88,11.29-9.22,14.35l-48.22,34.02-11.85,8.25-7.17,4.98-9.84,7.12c-4.57,3.31-8.48,6.04-13.85,8.39-4.7,2.05-9.77,5.75-15.13,6.39-11.91,1.42-21.02-5.69-27.48-14.62-2.24-1.9-4.53-4.05-6.46-6.62l-5.73-5.07-8.12-8.85-12.19-12.66-9.15-9.17-6.73-7.5-10.12-10.65-8.42,4.02-11.15,5.62-11.54,5.94-11.05,5.95-10.31,5.24ZM529.49,594.31l58.53-14.15c3.07-.74,3.83-2.23,5.56-4.63l32.61-45.31,7.35-9.68,7.03-9.94,7.52-10.65c2.54-3.6,8-8.61,6.61-13.23l-7.97-10.62-8.69-10.2-6.68-9.34-7.01-9.93-6.84-8.14-9.11-12.06-6.65-9.43-5.64-7.11-65.05,15.78-16.93,16.75-9.39,9.29-9.19,8.99-8.03,7.79-6.64,6.36-12.2,11.75-10.35,10.57,7.35,10.33,6.77,9.32,6.54,9.04,13.48,19.54,4.81,7.28,6.59,9.46,7.44,10.53,8.68,11.38c2.66,3.49,3.88,8.8,9.49,10.27Z"/>
</svg>