<?xml version="1.0" encoding="UTF-8"?>
<svg id="Layer_1" data-name="Layer 1" xmlns="http://www.w3.org/2000/svg" viewBox="0 0 1000 1000">
  <path d="M973.68,397.74c-5.77-13.45-20.04-15.23-32.43-10.8l-8.53,3.05-9.28,3.14-10.71,3.87-48.83,17.67-8.84,2.98-9.81,3.38-9.47,3.41-9.89,3.56-20.33,7.48-29.53,10.37-9.31,3.19-8.13,2.89-8.53,3.03-21.14,7.83-9.4,3.45-8.77,3.2-18.44-25.38-9.54-13.62-5.1-6.94-5-7.01-7.95-11.06-5.06-7-4.93-6.91-13.73-19.5c-1.73-2.46-1.11-8.44-1.39-11.36l-1.27-13.45-.73-7.69-.69-9.42-2.38-27.89-.64-8.37-.99-10.28-2.63-29.66-2.43-29.66-.73-8.23-.78-9.47-1.03-11.1-1.26-14.14-.92-13.45c-.85-12.39-7.2-23.65-21.45-24.15-7.23-.25-17.57,3.81-21.88,10.83-4.9,7.97-7.8,16.77-11.89,25.14l-2.98,6.09-1.81,6.09-20.28,44.59c-.8,1.76-.74,4.19-2.69,5.64l-1.08,4.82-21.47,47.56c-3.51,10.7-8.41,19.51-13.07,30.26l-7.52-1.22-9.32-1.99-7-.07-23.46-23.43-24.65-24.34-20.64-20.32-14.64-14.4-6.56-6.44-16.85-16.33-8.46-8.3-43.23-42.82-7.05-6.99-28.56-28.43-29.57-29.64c-4.23-4.24-7.42-7.23-13.03-9.98-5.12-2.51-9.75-7.25-16.28-6.25-6.3.96-13.59,2.95-18.2,7.41-7.45,7.21-9.58,18.4-4.55,27.04l4.88,8.36,5.6,10.37,4.05,7.88,24.72,44.24,6.42,11.65,4.34,7.73,5.11,8.95,5.04,8.83,5.09,8.96,5.2,9.72,15.48,28.46,11.64,20.42,4.89,8.84,5.26,9.86,6.04,11.33c.67,1.47-1.69,4.23-3,5.64l-19.48,20.92-7.74,7.84-5.48,5.52-5.87-1.66-9.78-3.24-10.6-3.51-9.72-3.22-9.01-2.99-10.5-3.41-8.44-2.76-10.42-3.48-11.24-3.73-9.02-2.97-9.02-2.96-10.55-3.46-8.37-2.67-11.06-3.79-9.11-2.98-9.84-3.17-9.09-2.95-9.03-2.93-9.78-3.2-9.85-3.3c-4.04-1.35-8.08-1.66-12.1-3.06l-6-2.09-7.98-2.35-9.98-3.33c-9.5-3.17-22.11.52-27.74,8.8-4.89,7.2-5.87,17.86-.48,24.64,5.75,7.23,12.61,13.27,19.15,19.75l6.56,6.51,7.86,7.94,15.16,14.97,6.54,6.49,6.51,6.52,15.54,15.46,7.51,7.42,38.83,38.24,24.3,23.68,5.19,4.83,7.63,7.39,6.54,6.45,8.48,8.44,7.18,6.99c2.81,2.74,1.92,7.17,1.99,10.95l.49,26.9,8.18,110.36,5.3,34.77c.98,6.44-.63,12.06-3.43,17.81l-24.12,49.49c-6.38,13.09.7,24.63,12.08,31.27l67.44,39.36,45.17,25.02,132.29,68.36c4.35,2.25,8.17,1.08,12.22-.24l8.83-2.87,6.46-2.42,204.88-92.46,250.48-99.81c6.81-6.39,7.21-17.48,2.11-25.74-3.94-6.4-11.53-11.09-20.43-10.22-4.59.45-9.55-.18-14.3-.37l-22.57-.9-18.49-.92-9.66-.05-17.75-1.18-13.4-.37-27.7-1.27-21.49-.98-33.69-1.6-10.7-.08,2.51-8.75,2.17-6.53c.82-2.45,2.02-7.91,3.77-9.83l8.45-9.27,6.78-6.74,6.77-6.73,6.57-6.54,7.52-7.48,8.38-8.57,6.98-6.95,6.59-6.53,7.42-7.45,8.43-8.7,6.95-6.95,6.59-6.49,6.96-6.95,11.9-12.08,7.03-7.08,7.51-7.44,6.6-6.54,7.85-8.08,6.95-7.07,7.49-7.46,7.96-7.86,15.08-15.24,35.83-35.93,6.01-6.12,7.52-7.41,7.16-7.07c5.93-5.85,7.68-16.68,4.44-24.22Z"/>
</svg>