<?xml version="1.0" encoding="UTF-8"?>
<svg id="Layer_1" data-name="Layer 1" xmlns="http://www.w3.org/2000/svg" viewBox="0 0 1000 1000">
  <path d="M312.13,523.47l-42.53-30.98c-3.63-6.26-2.02-12.44,1.53-18.56l23.71-16.18,32.79-23.1,15.92-11.04,12.42-8.68,23.76-16.3,16.8-12.09,34.21-23.69,33.78-23.47,30.12-20.88,22.68-16.13,21.95-15.11,13-9.05,22.27-15.76,7.31-4.63,31.24-21.8,21.59-15.37,31.25-21.7,19.47-13.56,30.64-21.32,34.09-23.81,16.55-11.56,11.25-7.75,12.45-8.6,25.44-17.62,32.8-23.11,30.25-20.73c3.82-2.62,8.17-3.12,12.15-1.44,3.04,1.28,6.73,5.41,6.82,9.73l1.39,63.6.99,50.03,1.03,49.98.95,45.02,1.03,49.99,1,50,1.03,49.99.94,45.02.99,49.99,1.04,50,1.03,49.99.94,45.02,1,49.99,1.03,50,1.03,49.99.95,45.02,1.01,49.98.42,33.71c.09,7.12-7.3,9.52-12.33,11.83-5.71,2.62-10.44,5.52-16.1,1.28l-67.9-50.86-16.39-11.75-23.62-17.32-27.2-20.01-112.87-83.94-88.01-64.95-63.1-46.96-82.78-61.21-93.22-69.19Z"/>
  <path d="M238.55,359.39l.3,292.51.39,137.93.16,139.18c0,4.08-3.74,7.17-6.62,8.7l-5.51,2.93-124.15,13.17c-7.64-2.2-12.76-6.15-12.57-13.74L113.01,55.47c.18-7.16,7.35-10.8,12.78-10.56l29.26,1.31,61.53,2.92,8.96,1.18c5.34.7,11.55,2.55,11.85,9.61l.52,12.23.31,142.74.32,144.49Z"/>
</svg>