<?xml version="1.0" encoding="UTF-8"?>
<svg id="Layer_1" data-name="Layer 1" xmlns="http://www.w3.org/2000/svg" viewBox="0 0 1000 1000" fill="none" stroke="#000" stroke-width="44" stroke-linecap="round" stroke-linejoin="round">
  <path fill="none" d="M256.43,951.77l-18.49-1.06-17-.97-18-1.03-17-.98-17-.98-18-1.02-17.06-.95-13.41-.91c-7.4-.5-14.16-1.07-18.66-6.4-5.2-6.15-6.09-13.46-3.5-20.97l3.82-11.08,7.27-18.22,10.28-26.58,8.71-22.41,10.29-26.59,10.14-25.83,15.97-41,16.21-41.78,18.24-46.78,16.78-43.22,21.95-56.02,15.52-40.49,7.45-18.54,22.06-56.85,9.33-23.79,18.44-47.5,15.69-40.36,19.27-49.63,12.89-33.91c3.8-10.01,10.04-16.16,21.24-16.57,4.7-.17,9.38-.1,14.35,1.13l58.8,14.54,95.92,22.98,65.1,15.97,69.34,16.74,2.97-11.14,15.28-55.82,7.37-26.73,6.69-24.29,6.94-25.03,6.31-23.03,4.85-18,5.7-19.81c1.89-6.56,3.37-12.41,8.44-15.7,6.27-4.07,12.64-3.74,19.52-1.8l15.81,4.44,21.35,5.9,15.42,4.27c5.4,1.5,10.17,3.99,13.64,8.31,7.81,6.29,9.16,15.48,5.54,24.91l-44.66,190.45c-.91,3.87-1.67,6.48-1.45,9.92,9.87,4.4,14.18,16.47,8.64,25.53l-16.17,65.54-19.29,77.66-15.98,65.06-8.27,31.7-13.7,56.26-7.34,28.74-13.63,55.38-19.07,76.9-19.24,77.68-14.47,59.44c-3.53,14.49-10.46,26.67-25.75,25.74l-13.79-.84-12.07-.64-16.04-.95-17-.99-18-1.03-17-.97-18-1.03-17-.97-18-1.03-17-.97-18-1.03-17-.98-17-.98-18-1.04-17-.97-18-1.03-17-.97-18-1.03-17-.97-18-1.03-17.01-.98-16.5-.95Z"/>
</svg>