<?xml version="1.0" encoding="UTF-8"?>
<svg id="Layer_1" data-name="Layer 1" xmlns="http://www.w3.org/2000/svg" viewBox="0 0 1000 1000">
  <path d="M89.33,902.43l.82-16.46,1.25-28.86.61-11.1.63-11.11.8-23.46,1.1-18.86,1.03-23.95.91-18.25,1.11-25.74.86-17.27,1.19-26.57.81-17.4,1.08-19.83.9-24.12,1.1-18.89.9-25.11,1.08-18.87,1.05-23.95.89-18.24,1.19-25.58.81-17.4,1.08-19.83.91-24.13,1.1-19.87.9-24.12,1.09-18.88.92-23.13,1.08-19.86,1.03-24.93.78-15.68.77-15,1.28-28.86.58-11.11.65-12.11.82-22.47,1.1-19.85,1.03-24.94.95-18.07.94-23.08.85-16.52c.21-4.18.85-8.67.64-12.93-.34-6.69,1.11-12.76,5.67-16.97s10.61-6,17.73-4.75l9.73-4.29c12.05-.07,23.45.24,35.35.5l43.19.95,50.76,1.09,44.21.92,44.8,1.04,41.55.75,8.98.77c11.06.95,17.36,10.54,17.62,20.6l.28,10.67-.53,6.91-.84,35.2-1.02,35-1.01,35-1.01,35.99-.91,34.19-1.03,35.8-.95,34.2-1.04,35.8-.95,34.2-1.04,35.8-.85,33.42-1.21,42.56-.98,35.03-1,36.01-1.01,35-1.01,35-1.02,35.99-.91,34.19-1.04,35.8-.96,34.2-1,35-1.05,35.81-.94,34.11-.38,20.66c-.18,9.83-5.97,20.73-17.25,20.73l-136.38.02-10.62-.43-7.24-.38-139.32-.32c-7.14-.02-13.17-.23-17.98-4.74-5.31-4.97-6.88-10.81-6.81-18.01l.09-10.09.68-12.54Z"/>
  <path d="M911.49,935.43c-2.28,10.42-12.47,14.3-21.69,14.08l-44.23-1.05-44.2-.92-51.78-1.09-44.2-.91-44.1-.75-9.36-.54-40.87-.4c-9.17-.09-21.04-14.64-21.04-21.24l-.08-235.36-.28-7.23-.22-9.03-.1-9.17v-8.81s-.02-8.2-.02-8.2l-.07-8.74-.12-10.61-.2-358.15-.27-7.3-.22-9.02-.1-9.17-.03-8.8-.03-8.77-.08-8.92-.28-129.12c1.85-11.24,11.02-16.87,21.75-16.57l64.52-7.28,13.58-.69,77.71-8.33,80.38-8.31,24.82-2.5c8.77-.88,16.14-.14,21.49,6.9s4.91,15.19.08,23.06c-.74,4.54.11,11.1.22,15.98l1.03,43.95.91,42.19,1.1,43.82.95,43.2.95,42.99,1.1,44.81.95,43.21,1.03,44.8.81,40.52.49,11.45.78,35.03.66,37.27.54,9.26.57,33.64.34,8.64.66,34.56.71,34.22.47,11.9.23,7.16.54,31.87.44,10.33.56,33.68.44,10.33.7,35.34.83,40.48.49,11.18.56,34.49.31,7.66c.24,5.92,1.11,13.3-.14,19.01Z"/>
</svg>